<svg id="iconmonstr-twitter-4" xmlns="http://www.w3.org/2000/svg" width="36.857" height="36.857" viewBox="0 0 36.857 36.857">
  <path id="iconmonstr-twitter-4-2" data-name="iconmonstr-twitter-4" d="M18.428,0A18.428,18.428,0,1,0,36.857,18.428,18.429,18.429,0,0,0,18.428,0Zm9.316,14.812A12.543,12.543,0,0,1,8.446,25.95a8.874,8.874,0,0,0,6.53-1.826,4.421,4.421,0,0,1-4.122-3.064,4.424,4.424,0,0,0,1.993-.075A4.417,4.417,0,0,1,9.309,16.6a4.4,4.4,0,0,0,2,.551,4.417,4.417,0,0,1-1.365-5.889,12.52,12.52,0,0,0,9.091,4.609,4.414,4.414,0,0,1,7.517-4.024,8.8,8.8,0,0,0,2.8-1.07,4.429,4.429,0,0,1-1.94,2.44,8.8,8.8,0,0,0,2.532-.7A8.854,8.854,0,0,1,27.744,14.812Z" fill="#502d0e"/>
</svg>
