<svg id="iconmonstr-instagram-14" xmlns="http://www.w3.org/2000/svg" width="36.857" height="36.857" viewBox="0 0 36.857 36.857">
  <path id="iconmonstr-instagram-14-2" data-name="iconmonstr-instagram-14" d="M22.773,9.678c-1.133-.052-1.474-.061-4.344-.061s-3.21.011-4.343.061c-2.916.134-4.274,1.514-4.407,4.407-.051,1.133-.063,1.473-.063,4.343s.012,3.21.063,4.344c.134,2.886,1.485,4.274,4.407,4.407,1.132.051,1.473.063,4.343.063s3.211-.011,4.344-.063c2.916-.132,4.272-1.517,4.407-4.407.051-1.133.061-1.474.061-4.344s-.011-3.21-.061-4.343c-.135-2.892-1.494-4.274-4.407-4.407ZM18.428,23.949a5.52,5.52,0,1,1,5.521-5.521A5.521,5.521,0,0,1,18.428,23.949Zm5.739-9.968a1.29,1.29,0,1,1,1.29-1.29A1.29,1.29,0,0,1,24.167,13.981Zm-2.156,4.447a3.583,3.583,0,1,1-3.583-3.583A3.583,3.583,0,0,1,22.011,18.428ZM18.428,0A18.428,18.428,0,1,0,36.857,18.428,18.429,18.429,0,0,0,18.428,0ZM29.114,22.86c-.177,3.908-2.353,6.074-6.252,6.253-1.147.052-1.514.064-4.434.064s-3.285-.012-4.432-.064c-3.907-.18-6.074-2.348-6.253-6.253-.052-1.146-.064-1.513-.064-4.432s.012-3.285.064-4.432C7.923,10.09,10.091,7.923,14,7.745c1.147-.054,1.513-.066,4.432-.066s3.286.012,4.434.066c3.908.18,6.077,2.353,6.252,6.252.052,1.147.064,1.513.064,4.432S29.166,21.715,29.114,22.86Z" fill="#502d0e"/>
</svg>
