<svg id="iconmonstr-youtube-9" xmlns="http://www.w3.org/2000/svg" width="36.857" height="36.857" viewBox="0 0 36.857 36.857">
  <path id="iconmonstr-youtube-9-2" data-name="iconmonstr-youtube-9" d="M18.428,0A18.428,18.428,0,1,0,36.857,18.428,18.429,18.429,0,0,0,18.428,0Zm6.82,25.941c-3.228.221-10.418.221-13.642,0-3.5-.24-3.9-1.95-3.928-7.513.026-5.573.438-7.273,3.928-7.513,3.223-.221,10.415-.221,13.642,0,3.5.24,3.9,1.95,3.93,7.513C29.151,24,28.741,25.7,25.248,25.941ZM15.357,14.832l7.551,3.59-7.551,3.6Z" fill="#502d0e"/>
</svg>
